<?xml version="1.0" encoding="utf-8"?>
<!-- Generator: Adobe Illustrator 22.1.0, SVG Export Plug-In . SVG Version: 6.00 Build 0)  -->
<svg version="1.1" id="Layer_1" xmlns="http://www.w3.org/2000/svg" xmlns:xlink="http://www.w3.org/1999/xlink" x="0px" y="0px"
	 viewBox="0 0 190 120" style="enable-background:new 0 0 190 120;" xml:space="preserve">
<style type="text/css">
	.st0{fill:#004986;}
	.st1{fill:url(#SVGID_1_);}
	.st2{fill:url(#SVGID_2_);}
	.st3{fill:#6DCFF6;}
	.st4{fill:url(#SVGID_3_);}
	.st5{fill:#1B8DC4;}
	.st6{fill:#FFCC32;}
	.st7{fill:url(#SVGID_4_);}
	.st8{fill:url(#SVGID_5_);}
	.st9{fill:#FFFBCC;}
	.st10{fill:#FFFFFF;}
</style>
<g>
	<g>
		<path class="st0" d="M68.9,57.1c17.4-0.5,34.9-0.5,52.3,0c20.1,0.6,42.4,2.1,68.8,5.4l0.1,0.1V120H0V62.6l0.1-0.1
			C26.5,59.1,48.8,57.6,68.9,57.1z"/>
		<g>
			
				<linearGradient id="SVGID_1_" gradientUnits="userSpaceOnUse" x1="-220.5492" y1="466.6295" x2="-216.5515" y2="466.6295" gradientTransform="matrix(0 9.5714 9.5714 0 -4371.2959 2163.3413)">
				<stop  offset="0" style="stop-color:#1B8DC4"/>
				<stop  offset="0.1" style="stop-color:#1B8DC4"/>
				<stop  offset="0.3082" style="stop-color:#1378B1"/>
				<stop  offset="0.6917" style="stop-color:#055692"/>
				<stop  offset="0.9" style="stop-color:#004986"/>
				<stop  offset="1" style="stop-color:#004986"/>
			</linearGradient>
			<polygon class="st1" points="70.9,56.5 47,64.4 71.3,60.7 51.3,71.4 74,64.1 57.5,77.6 77.6,67.1 65.3,82.8 82,69.4 74.5,86.6 
				87,71 84.5,89 92.3,71.9 95,90.4 97.7,71.9 105.5,89 103,71 115.5,86.6 108,69.4 124.7,82.8 112.4,67.1 132.5,77.6 116,64.1 
				138.7,71.4 118.7,60.7 143,64.4 119.1,56.5 			"/>
			
				<linearGradient id="SVGID_2_" gradientUnits="userSpaceOnUse" x1="-222.3564" y1="464.5117" x2="-218.3746" y2="464.5117" gradientTransform="matrix(0 8.5661 8.5661 0 -3884.0518 1957.304)">
				<stop  offset="0" style="stop-color:#6DCFF6"/>
				<stop  offset="6.024003e-03" style="stop-color:#6CCEF5"/>
				<stop  offset="0.3446" style="stop-color:#3E95C6"/>
				<stop  offset="0.635" style="stop-color:#1C6CA3"/>
				<stop  offset="0.8628" style="stop-color:#08528E"/>
				<stop  offset="1" style="stop-color:#004986"/>
			</linearGradient>
			<polygon class="st2" points="74.9,56.5 55.2,62.4 79.6,58.1 58.7,68.3 82,59.9 63.9,73.4 84.9,61.3 70.4,77.7 87.8,62.3 78,80.9 
				90.7,62.7 86.3,82.9 93.5,63.2 95,86.7 96.5,63.2 103.7,82.9 99.3,62.7 112,80.9 102.2,62.3 119.6,77.7 105.1,61.3 126.1,73.4 
				108,59.9 131.3,68.3 110.4,58.1 134.8,62.4 115.1,56.5 			"/>
			<path class="st3" d="M69.2,63.9l14.4-7.1c3.9,0,7.7-0.1,11.4-0.1c3.8,0,7.6,0,11.4,0.1l14.4,7.1l-17.6-6.7l11.9,9L101.3,58
				l8.3,9.7l-10.2-9.2l5.1,10.1l-6.9-9.7l2,10.1l-3.8-9.8l-0.9,10l-0.9-10l-3.8,9.8l2-10.1l-6.9,9.7l5.1-10.1l-10.2,9.2l8.3-9.7
				l-13.9,8.2l11.9-9L69.2,63.9z M113.4,57c-2.1,0-4.1-0.1-6.1-0.1l18.9,3.5L113.4,57z M82.7,56.9c-2,0-4.1,0.1-6.1,0.1l-12.8,3.4
				L82.7,56.9z"/>
			
				<radialGradient id="SVGID_3_" cx="286.2433" cy="183.2757" r="130.4067" gradientTransform="matrix(0.4 0 0 0.4 -19.4971 -21.1474)" gradientUnits="userSpaceOnUse">
				<stop  offset="0" style="stop-color:#6DCFF6"/>
				<stop  offset="0.55" style="stop-color:#6DCFF6"/>
				<stop  offset="0.6488" style="stop-color:#6ACCF3"/>
				<stop  offset="0.7253" style="stop-color:#63C2EB"/>
				<stop  offset="0.7943" style="stop-color:#55B2DD"/>
				<stop  offset="0.8589" style="stop-color:#429ACA"/>
				<stop  offset="0.9205" style="stop-color:#2A7CB1"/>
				<stop  offset="0.979" style="stop-color:#0C5893"/>
				<stop  offset="1" style="stop-color:#004986"/>
			</radialGradient>
			<path class="st4" d="M142,55.8c2.1,0.2,3.2,0.3,5.2,0.5v-4.1C147.2,23.4,123.8,0,95,0S42.8,23.4,42.8,52.2v4.1
				c2-0.2,3-0.3,5.2-0.5H142z"/>
			<path class="st5" d="M138.8,55.6c0.5,0,1.4,0.1,2.1,0.2c0.4,0,0.8,0.1,1.1,0.1l-10.3-3.7l14.7-5.4l-15.5-2.2l13.3-8.3l-15.6,1
				l11.2-10.9l-15.1,4.3l8.7-13l-13.9,7.3l5.8-14.5l-12,10L116,5l-9.7,12.3l-0.6-15.6l-6.9,14.1L95,0.5l-3.8,15.2L84.3,1.6
				l-0.6,15.6L74,5l2.7,15.4l-12-10l5.8,14.5l-13.8-7.3l8.7,13l-15.1-4.3l11.2,10.9l-15.6-1l13.3,8.3l-15.5,2.2l14.7,5.4L48,55.8
				c0.3,0,0.7-0.1,1.1-0.1c0.8-0.1,1.7-0.1,2.1-0.2H138.8z"/>
			<path class="st6" d="M138.8,55.6l-11.9-3.4l18.3-5.3l-19-1.4l16.8-9l-18.9,2.6l14.6-12.3l-17.9,6.5l11.7-15l-16.2,10.1h0
				l8.3-17.1L111,24.5L115.5,6l-10.7,15.8l0.6-19l-7.2,17.7L95,1.7l-3.3,18.8L84.5,2.8l0.6,19L74.5,6L79,24.5L65.3,11.3l8.3,17.1
				L57.5,18.4l11.7,15l-17.9-6.5l14.6,12.3v0v0L47,36.6l16.8,9l-19,1.4l18.3,5.3l-11.9,3.4C53.8,55.4,136.2,55.4,138.8,55.6z"/>
			
				<radialGradient id="SVGID_4_" cx="-315.1821" cy="183.2798" r="238.9171" gradientTransform="matrix(-0.4 0 0 0.4 -31.0728 -21.1474)" gradientUnits="userSpaceOnUse">
				<stop  offset="0" style="stop-color:#FFED78"/>
				<stop  offset="0.3" style="stop-color:#FFED78"/>
				<stop  offset="0.75" style="stop-color:#FFCC32"/>
				<stop  offset="1" style="stop-color:#FFCC32"/>
			</radialGradient>
			<path class="st7" d="M0,62.6c26.4-3.4,48.8-4.8,68.9-5.4c17.4-0.5,34.9-0.5,52.3,0c20.1,0.6,42.5,2,68.9,5.4v-0.9
				c-14.5-2.5-29.1-4.2-42.8-5.4c-2-0.2-3-0.3-5.2-0.5c-0.3,0-0.7-0.1-1.1-0.1c-0.8-0.1-1.7-0.1-2.1-0.2c-2.5-0.2-5.1-0.4-7.6-0.6
				H58.8c-2.5,0.2-5.1,0.4-7.6,0.6c-0.5,0-1.4,0.1-2.1,0.2c-0.4,0-0.8,0.1-1.1,0.1c-2.1,0.2-3.2,0.3-5.2,0.5
				C29.1,57.5,14.5,59.2,0,61.7V62.6z"/>
			
				<radialGradient id="SVGID_5_" cx="-201.1936" cy="486.5705" r="1.3194" gradientTransform="matrix(-72.4285 0 0 -72.4285 -14477.1533 35293.7344)" gradientUnits="userSpaceOnUse">
				<stop  offset="0" style="stop-color:#FFED78"/>
				<stop  offset="0.3" style="stop-color:#FFED78"/>
				<stop  offset="0.75" style="stop-color:#FFCC32"/>
				<stop  offset="1" style="stop-color:#FFCC32"/>
			</radialGradient>
			<polygon class="st8" points="128,55.5 131.2,55 117.4,52.2 141.2,47.3 116.9,47.5 139.2,37.8 115.4,43.1 135.2,29 113.1,39 
				129.5,21.1 110,35.5 122.3,14.6 106.2,32.8 113.9,9.7 101.9,30.9 104.7,6.8 97.3,29.9 95,5.7 92.7,29.9 85.3,6.8 88.1,30.9 
				76.1,9.7 83.8,32.8 67.7,14.6 80,35.5 60.5,21.1 76.9,39 54.8,29 74.6,43.1 50.8,37.8 73.1,47.5 48.8,47.3 72.6,52.2 58.8,55 
				62,55.5 			"/>
			<polygon class="st9" points="130.2,48.5 104,50.9 128.7,41.2 103.4,48.6 125.7,34.5 102.5,46.7 121.3,28.5 101.2,45.3 
				115.8,23.5 99.6,44.2 109.4,19.8 97.9,43.4 102.4,17.5 96,43 95,16.7 94,43 87.6,17.5 92.1,43.4 80.6,19.8 90.4,44.2 74.2,23.5 
				88.8,45.3 68.7,28.5 87.5,46.7 64.3,34.5 86.6,48.6 61.3,41.2 86,50.9 59.8,48.5 85.8,53.3 62,55.5 79,55.8 95,55.9 111,55.8 
				128,55.5 104.2,53.3 			"/>
		</g>
	</g>
	<path class="st10" d="M23.9,105h4.9c1.3,0,2.2,0.3,2.9,1c0.5,0.5,0.7,1.1,0.7,1.8v0c0,1.3-0.8,2-1.6,2.5c1.3,0.4,2.2,1.2,2.2,2.7v0
		c0,2-1.6,3-4.1,3h-5.1V105z M30.5,108.1c0-0.9-0.7-1.4-1.9-1.4h-2.8v2.9h2.6C29.7,109.6,30.5,109.1,30.5,108.1L30.5,108.1z
		 M28.9,111.3h-3.1v3H29c1.3,0,2.1-0.5,2.1-1.5v0C31.1,111.8,30.4,111.3,28.9,111.3z M59.3,105h2.1l2.6,8.1l2.7-8.1h1.7l2.7,8.1
		l2.6-8.1h2l-3.8,11h-1.7l-2.7-7.9l-2.7,7.9h-1.7L59.3,105z M84,111.7l-4.4-6.7h2.3l3.1,4.9l3.1-4.9h2.2l-4.4,6.6v4.4H84V111.7z
		 M41.2,111.7l-4.4-6.7h2.3l3.1,4.9l3.1-4.9h2.2l-4.4,6.6v4.4h-1.9V111.7z M95.2,105H97l5.9,7.6V105h1.9v11h-1.6l-6.1-7.8v7.8h-1.9
		V105z M111.4,105h4.1c3.5,0,5.8,2.4,5.8,5.5v0c0,3.1-2.4,5.5-5.8,5.5h-4.1V105z M113.4,106.8v7.5h2.2c2.3,0,3.8-1.6,3.8-3.7v0
		c0-2.2-1.5-3.7-3.8-3.7H113.4z M126.7,105h1.9v4.6h5.2V105h1.9v11h-1.9v-4.6h-5.2v4.6h-1.9V105z M145.5,105h1.9l4.8,11h-2l-1.1-2.7
		h-5.2l-1.1,2.7h-2L145.5,105z M148.3,111.6l-1.9-4.4l-1.9,4.4H148.3z M157.1,105h2.1l3.3,5.2l3.3-5.2h2.1v11H166v-7.9l-3.5,5.2
		h-0.1l-3.4-5.2v7.9h-1.9V105z"/>
	<path class="st10" d="M186.1,94.3c-0.5,0.5-1.1,0.7-1.8,0.7c-0.7,0-1.3-0.2-1.8-0.7c-0.5-0.5-0.7-1.1-0.7-1.8
		c0-0.7,0.2-1.3,0.7-1.8c0.5-0.5,1.1-0.7,1.8-0.7c0.7,0,1.3,0.2,1.8,0.7c0.5,0.5,0.7,1.1,0.7,1.8C186.8,93.3,186.6,93.9,186.1,94.3z
		 M182.8,91.1c-0.4,0.4-0.6,0.9-0.6,1.5c0,0.6,0.2,1.1,0.6,1.5c0.4,0.4,0.9,0.6,1.5,0.6c0.6,0,1.1-0.2,1.5-0.6
		c0.4-0.4,0.6-0.9,0.6-1.5c0-0.6-0.2-1.1-0.6-1.5c-0.4-0.4-0.9-0.6-1.5-0.6C183.7,90.5,183.2,90.7,182.8,91.1z M185.5,94H185l0-0.1
		c0,0,0,0,0,0l0,0l0-0.1l0-0.2c0-0.3-0.1-0.5-0.2-0.6c-0.1-0.1-0.3-0.1-0.5-0.1h-0.3V94h-0.6v-2.8h1c0.3,0,0.6,0,0.8,0.1
		c0.3,0.1,0.5,0.4,0.5,0.7c0,0.3-0.1,0.5-0.3,0.6c-0.1,0-0.1,0.1-0.2,0.1c0.1,0.1,0.2,0.1,0.3,0.2c0.1,0.2,0.2,0.3,0.2,0.4v0.2
		c0,0.1,0,0.1,0,0.2c0,0.1,0,0.1,0,0.1L185.5,94z M183.8,92.5h0.4c0.2,0,0.3,0,0.4-0.1c0.2-0.1,0.3-0.2,0.3-0.4
		c0-0.2-0.1-0.3-0.2-0.4c-0.1-0.1-0.3-0.1-0.6-0.1h-0.4V92.5z M114.3,68.3h3.9c2.7,0,4,1,4,3.1v23.3h-7.9V68.3z M150.7,82.1
		c0-5.9-4.3-8.4-9.5-8.4c-2.2,0-4.4,0.7-6.6,2c-0.5-1.1-1.6-1.6-3.4-1.6h-3.6v20.7h7.3V79.4c1.2-0.9,2.6-1.4,4.4-1.4
		c2.2,0,4,1.4,4,3.4v13.2h7.4V82.1z M178.6,82.1c0-5.9-4.3-8.4-9.5-8.4c-2.2,0-4.4,0.7-6.6,2c-0.5-1.1-1.6-1.6-3.4-1.6h-3.6v20.7
		h7.3V79.4c1.2-0.9,2.6-1.4,4.4-1.4c2.2,0,4,1.4,4,3.4v13.2h7.4V82.1z M58.5,94.4c-3.1,0.5-7.9,0.7-11.5,0.7
		c-7.5-0.1-11.1-2.2-11-6.7c0.1-5.7,7.6-6.6,15.2-7.2v-0.4c0-2.1-2.4-2.7-4.6-2.7c-2.6,0-5,1-6.5,1c-0.7,0-1.4-0.6-1.7-1.4
		c-0.5-1-0.9-2.3-0.9-2.3c1.8-0.7,5.6-1.7,10.4-1.7c6,0,10.6,2,10.6,8V94.4z M51.2,84.4c-3.3,0.2-7.6,0.8-7.6,3.7
		c-0.1,2.1,1.8,3,4.1,3c0.8,0,1.8,0,3.6-0.2V84.4z M64.1,74.1c2.2,0,3.3,1,4.2,2.9l4.3,8.6l4.9-11.5h7.4l-9.6,22.3
		c-0.9,2-2,2.9-4,2.9h-4.7l2.7-6.4l-9.5-18.8H64.1z M18.6,94.7c10.8,0,14.7-6.1,14.7-13.2c0-7.1-3.9-13.2-14.7-13.2H7v26.4H18.6z
		 M19,72.8c3.6,0,6.3,2.1,6.3,8.7c0,6.6-2.7,8.7-6.3,8.7l-3.9,0V72.8H19z M93.3,91c-2.8,0-4.2-0.8-5.8-0.9c-0.8,0-1.4,0.6-1.8,1.3
		c-0.5,1.1-0.8,1.9-0.8,1.9c2.6,1.2,5,1.7,9.1,1.7c6.9,0,11.1-2.9,11.1-6.5c0-2.4-1.3-4.4-6.9-6c-2.3-0.7-4.1-1.6-4.2-3.1
		c-0.1-0.9,0.7-1.8,2.8-1.8c2.8,0,3.5,0.8,5,0.9c0.7,0,1.4-0.6,1.8-1.3c0.5-1.1,0.8-1.9,0.8-1.9c-2.6-1.2-5.2-1.6-8.5-1.6
		c-5.9,0-9.8,2.8-9.8,6.4c0,2.1,1.2,4.2,6.6,5.7c2.7,0.8,4,1.7,4.2,3.1C97,90.2,95.3,90.9,93.3,91"/>
</g>
</svg>
